<?xml version="1.0" standalone="no"?>
<!DOCTYPE svg PUBLIC "-//W3C//DTD SVG 20010904//EN"
 "http://www.w3.org/TR/2001/REC-SVG-20010904/DTD/svg10.dtd">
<svg version="1.0" xmlns="http://www.w3.org/2000/svg"
 width="720.000000pt" height="490.000000pt" viewBox="0 0 720.000000 490.000000"
 preserveAspectRatio="xMidYMid meet">
<metadata>
Created by potrace 1.16, written by Peter Selinger 2001-2019
</metadata>
<g transform="translate(0.000000,490.000000) scale(0.100000,-0.100000)"
fill="#000000" stroke="none">
<path d="M1390 4880 c-273 -48 -559 -189 -785 -386 -287 -252 -515 -637 -589
-996 -22 -108 -23 -573 -1 -668 53 -227 173 -477 315 -655 58 -72 205 -218
277 -274 133 -104 313 -205 488 -274 372 -147 852 -171 1229 -62 214 62 419
165 576 289 187 149 462 465 650 748 24 36 40 48 40 30 0 -15 112 -176 197
-282 377 -471 821 -745 1388 -856 122 -24 394 -24 520 -1 397 74 742 264 1021
560 260 279 424 611 475 965 19 136 7 424 -24 552 -40 168 -116 349 -204 488
-92 146 -278 347 -418 453 -217 164 -498 293 -780 360 -77 18 -130 22 -365 26
-306 5 -379 -3 -580 -68 -272 -88 -564 -281 -828 -548 -110 -112 -266 -300
-342 -413 -25 -37 -48 -68 -51 -68 -3 0 -42 48 -86 108 -286 382 -575 636
-908 798 -132 65 -286 121 -406 149 -207 47 -612 60 -809 25z m4240 -594 c269
-68 471 -173 642 -334 288 -272 395 -623 297 -982 -26 -98 -104 -260 -171
-357 -64 -93 -208 -241 -302 -310 -211 -155 -492 -245 -716 -230 -93 7 -274
50 -400 97 -375 136 -738 491 -993 969 l-45 84 55 86 c248 384 473 634 720
800 150 100 260 149 411 182 72 16 117 18 262 15 116 -3 197 -10 240 -20z
m-3660 -1 c52 -8 118 -21 145 -29 378 -105 721 -400 1058 -910 32 -49 61 -95
64 -102 9 -23 -265 -432 -403 -601 -96 -118 -291 -310 -363 -358 -213 -141
-493 -209 -764 -185 -187 16 -325 52 -482 125 -308 142 -520 383 -610 690
-101 347 29 770 330 1070 155 156 334 257 530 300 84 19 376 19 495 0z"/>
<path d="M5190 3580 l0 -170 -165 0 -165 0 0 -160 0 -160 165 0 165 0 0 -170
0 -170 160 0 160 0 0 170 0 170 175 0 175 0 0 160 0 160 -175 0 -175 0 0 170
0 170 -160 0 -160 0 0 -170z"/>
<path d="M1180 3250 l0 -130 600 0 600 0 0 130 0 130 -600 0 -600 0 0 -130z"/>
<path d="M6750 4755 c0 -20 5 -25 25 -25 24 0 25 -2 25 -65 0 -63 1 -65 25
-65 24 0 25 2 25 65 0 63 1 65 25 65 24 0 25 -2 25 -65 0 -58 2 -65 20 -65 16
0 20 7 21 38 l1 37 12 -35 c18 -48 49 -52 63 -8 l11 33 1 -32 c1 -26 5 -33 21
-33 19 0 20 7 20 91 l0 90 -27 -3 c-22 -2 -28 -11 -41 -53 l-15 -50 -15 53
-15 52 -103 0 -104 0 0 -25z"/>
<path d="M6555 1227 c-140 -47 -248 -165 -301 -331 -53 -163 -42 -476 21 -615
82 -179 234 -271 427 -258 98 6 160 25 250 79 151 89 226 292 215 583 -10 285
-99 455 -271 521 -59 22 -91 27 -186 30 -77 3 -128 0 -155 -9z m206 -208 c72
-25 119 -94 143 -211 31 -152 13 -381 -37 -470 -49 -88 -168 -124 -262 -78
-89 43 -123 131 -132 340 -11 286 61 422 228 429 14 1 41 -4 60 -10z"/>
<path d="M4270 1130 l0 -100 130 0 130 0 0 -390 0 -390 -130 0 -130 0 0 -100
0 -100 375 0 375 0 0 100 0 100 -125 0 -125 0 0 390 0 390 125 0 125 0 0 100
0 100 -375 0 -375 0 0 -100z"/>
<path d="M420 1215 c0 -2 -77 -263 -170 -578 -94 -316 -170 -579 -170 -586 0
-8 32 -11 117 -9 l117 3 31 110 30 110 197 3 c181 2 197 1 202 -15 2 -10 17
-62 32 -116 l27 -97 129 0 130 0 -6 28 c-4 15 -67 230 -141 477 -74 248 -149
501 -167 563 l-32 112 -163 0 c-90 0 -163 -2 -163 -5z m224 -496 c36 -130 66
-239 66 -242 0 -4 -61 -7 -136 -7 -125 0 -136 1 -132 18 19 70 133 470 134
469 1 -1 32 -108 68 -238z"/>
<path d="M1200 630 l0 -590 120 0 120 0 1 205 c1 113 3 210 4 215 1 6 3 22 4
36 1 25 3 26 46 22 84 -10 102 -34 206 -268 l92 -210 129 0 128 0 0 24 c0 13
-49 125 -109 248 -79 163 -119 233 -143 254 l-34 30 45 19 c61 25 117 78 149
139 21 43 26 65 26 136 0 102 -22 162 -86 227 -82 84 -175 103 -500 103 l-198
0 0 -590z m463 366 c47 -23 69 -64 69 -129 0 -93 -68 -143 -210 -154 l-82 -6
0 158 0 157 93 -4 c61 -3 105 -10 130 -22z"/>
<path d="M2180 629 l0 -591 223 5 c247 6 310 16 411 69 77 41 163 127 198 199
47 97 63 187 63 354 -1 137 -3 157 -28 230 -46 132 -118 221 -226 275 -79 40
-160 50 -408 50 l-233 0 0 -591z m491 364 c102 -52 154 -176 154 -368 -1 -138
-30 -231 -95 -296 -59 -59 -117 -79 -227 -79 l-83 0 0 385 0 385 98 0 c88 0
104 -3 153 -27z"/>
<path d="M3210 833 c0 -429 7 -528 44 -608 59 -130 200 -208 376 -208 218 0
383 122 435 318 12 49 15 133 15 472 l0 413 -120 0 -120 0 0 -413 c0 -445 -4
-489 -52 -535 -33 -31 -91 -52 -140 -52 -85 1 -171 64 -182 133 -9 52 -15 313
-16 600 l0 267 -120 0 -120 0 0 -387z"/>
<path d="M5250 630 l0 -590 105 0 105 0 2 402 3 402 179 -402 179 -402 143 0
144 0 0 590 0 590 -110 0 -110 0 -2 -396 -3 -395 -120 268 c-66 147 -145 324
-175 393 l-56 125 -142 3 -142 3 0 -591z"/>
</g>
</svg>
