<svg version="1.1" id="Layer_1" xmlns="http://www.w3.org/2000/svg" xmlns:xlink="http://www.w3.org/1999/xlink" x="0px" y="0px"
	 width="100%" viewBox="0 0 944 1024" enable-background="new 0 0 944 1024" xml:space="preserve">
<path fill="#000000" opacity="1.000000" stroke="none" 
	d="
M1.000000,958.462646 
	C208.073059,957.998108 415.146118,957.996277 622.219177,957.994324 
	C729.504395,957.993286 836.789612,957.992126 944.537415,957.995483 
	C945.000000,980.324524 945.000000,1002.648987 945.000000,1024.949707 
	C630.333313,1024.949707 315.666656,1024.949707 1.000000,1024.949707 
	C1.000000,1002.908142 1.000000,980.916687 1.000000,958.462646 
M84.243919,995.355042 
	C84.252083,996.518433 84.188782,997.687866 84.286819,998.843628 
	C84.404495,1000.230957 83.901932,1002.303894 86.135468,1002.209106 
	C88.232643,1002.120117 87.857300,1000.091309 87.893829,998.683716 
	C87.988678,995.029236 87.877502,991.368164 88.023605,987.716797 
	C88.099060,985.830933 87.898911,983.564880 91.209961,983.099243 
	C94.415398,989.096497 90.142014,996.552673 93.866898,1002.629211 
	C96.485283,1001.324219 96.001373,999.469788 96.032860,997.901245 
	C96.116241,993.747864 96.153419,989.589172 96.040794,985.437195 
	C95.862831,978.877014 94.324867,978.075012 88.623840,981.397766 
	C80.631805,976.834412 76.175278,979.324646 76.141594,988.377136 
	C76.129845,991.534973 76.063538,994.694946 76.159569,997.849731 
	C76.206772,999.400513 75.588692,1001.267761 77.731834,1002.323914 
	C80.183891,1001.759399 79.661957,999.669983 79.708405,997.978760 
	C79.817871,993.993164 79.742500,990.001587 79.902260,986.018860 
	C79.955383,984.694214 80.488846,983.220642 82.227707,983.369019 
	C83.600830,983.486145 84.049171,984.761719 84.100166,985.948608 
	C84.221359,988.769043 84.205086,991.595459 84.243919,995.355042 
M105.119164,1001.649048 
	C106.443474,1000.970032 107.467049,1001.146362 107.520767,1002.818726 
	C107.573433,1004.458618 106.788139,1005.636963 105.100151,1006.156921 
	C103.531860,1006.639893 101.266319,1005.457153 100.489365,1007.972290 
	C105.359741,1011.628113 111.212112,1009.847839 111.516380,1004.363525 
	C111.911659,997.238953 111.644974,990.076965 111.634720,982.931091 
	C111.632713,981.535645 111.386948,980.038940 109.570496,980.169800 
	C107.642807,980.308716 108.024345,982.042786 107.990265,983.278259 
	C107.894051,986.766296 108.041817,990.265808 107.825722,993.744080 
	C107.702133,995.733276 108.161224,998.782776 105.089661,998.652283 
	C102.492180,998.541992 102.849846,995.777710 102.802216,993.848938 
	C102.707878,990.028564 102.769699,986.204590 102.703705,982.383179 
	C102.683266,981.200012 102.472549,979.905762 100.914352,979.872375 
	C99.287849,979.837463 99.152954,981.176025 99.155251,982.342834 
	C99.166031,987.825745 99.083450,993.316284 99.353813,998.788330 
	C99.507668,1001.901978 101.333397,1003.253540 105.119164,1001.649048 
M39.502373,982.844360 
	C39.269131,985.372925 40.169331,986.688538 42.491100,984.842224 
	C43.959938,983.674194 45.138611,981.650024 46.819046,983.890381 
	C48.443573,986.056274 46.558086,987.613770 44.850441,988.712646 
	C42.167370,990.439270 39.465733,992.056580 38.635128,995.474182 
	C37.718483,999.245972 40.312935,1003.444824 43.313026,1002.380981 
	C45.969864,1001.438782 48.246922,1001.874329 51.562557,1002.641052 
	C51.562557,996.742859 51.630215,991.331177 51.534683,985.922424 
	C51.485165,983.118896 50.638908,980.449280 47.594234,979.664246 
	C44.616383,978.896423 41.575619,978.872009 39.502373,982.844360 
M60.385883,998.201172 
	C60.740303,1000.819031 62.163307,1003.142273 64.808426,1002.371460 
	C67.544228,1001.574280 70.043503,1001.778503 72.807579,1002.372681 
	C72.807579,995.933655 73.108475,989.836792 72.693748,983.789001 
	C72.448341,980.210510 68.681122,978.290100 65.130928,979.535156 
	C61.993881,980.635193 60.342113,982.730164 61.911747,986.109558 
	C63.763344,986.489746 64.304863,985.477661 64.900810,984.426331 
	C65.651321,983.102478 66.835243,982.372192 68.161911,983.447327 
	C69.622269,984.630615 69.221931,986.199768 68.108597,987.391479 
	C67.222237,988.340210 66.097038,989.128235 64.952736,989.761536 
	C61.902439,991.449402 60.348141,993.955078 60.385883,998.201172 
M57.767273,998.904114 
	C57.791157,991.777954 57.840775,984.651672 57.815247,977.525696 
	C57.810638,976.240967 57.821560,974.642212 55.911854,974.642517 
	C54.666348,974.642700 54.323841,975.731628 54.323929,976.763794 
	C54.324596,984.551758 54.350616,992.339844 54.415295,1000.127502 
	C54.423882,1001.161438 54.855911,1002.193787 56.076431,1002.220520 
	C57.752007,1002.257141 57.645500,1000.871033 57.767273,998.904114 
z"/>
<path fill="#000000" opacity="1.000000" stroke="none" 
	d="
M614.382568,208.378204 
	C597.450012,210.162949 581.373596,213.410477 566.220032,220.447769 
	C535.362549,234.777893 514.689575,258.664368 501.249817,289.380920 
	C496.093231,301.166260 492.435425,313.438293 489.442383,325.928558 
	C487.965424,332.092194 485.243652,334.492401 480.113556,334.432678 
	C475.333954,334.377014 472.751465,332.062592 471.331024,325.927460 
	C466.525879,305.173401 459.378632,285.360229 447.758209,267.379944 
	C427.039764,235.322159 397.566803,216.505203 360.063507,210.327194 
	C295.165802,199.636459 215.200485,229.841629 175.914520,298.709381 
	C156.365372,332.978790 147.631088,369.669830 150.469482,408.950958 
	C152.729935,440.234039 162.488831,469.207123 179.145721,495.820953 
	C179.587692,496.527100 180.039169,497.227997 180.458435,497.947540 
	C183.513412,503.190552 182.794479,508.488708 178.656494,511.282288 
	C174.165497,514.314148 168.867004,513.003723 165.406311,507.711182 
	C159.013519,497.934601 153.546356,487.660614 148.916183,476.915924 
	C138.442154,452.610229 132.672119,427.178497 132.087708,400.817596 
	C130.291870,319.812317 173.360565,244.715958 246.110870,210.380234 
	C273.302612,197.546646 301.963959,190.244492 331.967194,190.126740 
	C395.415558,189.877686 450.208618,222.141022 476.624664,285.290497 
	C477.693176,287.844879 478.812286,290.378113 480.102661,293.373444 
	C482.700073,290.415497 483.009491,287.156586 484.253723,284.341461 
	C504.692322,238.098221 538.255371,206.945877 587.951599,194.616379 
	C607.852783,189.678925 628.041138,189.135620 648.435242,191.481110 
	C688.576477,196.097702 724.580444,210.685059 755.525940,236.581482 
	C792.206665,267.277405 815.187500,306.505676 824.357361,353.485687 
	C834.777954,406.872986 826.077637,457.056610 797.876831,503.717377 
	C796.672607,505.709808 795.525940,507.757294 793.643066,509.238007 
	C790.210327,511.937622 786.479675,512.210510 783.019592,509.710083 
	C779.648621,507.274048 778.267639,503.714752 779.692383,499.571747 
	C780.280518,497.861572 781.229553,496.247589 782.187439,494.696686 
	C797.851196,469.335571 807.003479,441.874847 809.887329,412.149689 
	C817.403259,334.679138 775.995178,259.869934 706.909729,226.800644 
	C677.793457,212.863525 647.091431,206.734940 614.382568,208.378204 
z"/>
<path fill="#000000" opacity="1.000000" stroke="none" 
	d="
M418.720642,454.964783 
	C420.357849,419.891541 421.963196,385.302460 423.642395,350.716949 
	C423.937439,344.640228 427.125305,341.152313 432.155731,340.917786 
	C436.952972,340.694092 440.509155,344.061035 441.399017,350.082245 
	C445.408783,377.214508 449.337677,404.358704 453.295929,431.498566 
	C457.926270,463.246826 462.602661,494.988556 467.115234,526.753540 
	C467.559814,529.882996 468.675781,531.052246 471.822723,531.009705 
	C482.531921,530.864502 493.058624,529.555237 503.396393,526.731140 
	C509.766510,524.990906 513.633545,520.114685 517.611755,515.411255 
	C523.309631,508.674622 527.900635,501.054596 534.188782,494.778717 
	C549.826965,479.171204 567.413574,479.269104 582.717224,495.225677 
	C590.002136,502.821320 595.702148,511.705231 602.294312,519.869873 
	C608.324585,527.338440 615.339600,530.926575 625.475708,530.861084 
	C691.625305,530.433228 757.778809,530.605530 823.931030,530.585938 
	C833.140564,530.583191 837.378479,533.448486 837.245300,539.551514 
	C837.116089,545.473328 832.861450,548.306030 824.107422,548.308167 
	C756.788757,548.324951 689.469177,548.171143 622.152161,548.512024 
	C609.371460,548.576721 599.464722,543.851135 591.462585,534.633179 
	C584.808411,526.968018 578.827698,518.722168 572.423035,510.835571 
	C562.030457,498.038177 554.949524,497.935120 544.242188,510.546478 
	C540.692078,514.727783 537.375977,519.155518 534.375488,523.746765 
	C525.141052,537.876831 511.738373,544.947876 495.428436,547.110535 
	C484.036987,548.621033 472.602844,549.719727 461.076294,549.357605 
	C454.923523,549.164185 451.768646,546.647095 450.904419,540.639893 
	C446.430084,509.538818 442.019806,478.428528 437.051697,447.303314 
	C436.485901,458.600525 435.858978,469.895050 435.365234,481.195404 
	C433.584686,521.946472 431.850037,562.699524 430.089966,603.451477 
	C430.046936,604.447998 429.977448,605.452393 429.805511,606.432983 
	C428.867523,611.781433 425.570496,615.047668 421.040833,615.167480 
	C416.836182,615.278625 413.173157,612.298584 411.887024,607.383789 
	C407.801147,591.770691 403.731323,576.152527 399.806915,560.498291 
	C397.522644,551.386475 397.653198,551.354919 388.153503,551.345093 
	C384.487640,551.341248 380.821320,551.365540 377.156006,551.315857 
	C370.383118,551.224121 367.945892,549.329834 365.878143,542.995728 
	C365.056702,540.479492 364.164093,537.908142 362.808136,535.661072 
	C360.067017,531.118347 355.751434,531.150818 352.937836,535.635925 
	C351.888519,537.308594 351.102081,539.198303 350.491974,541.084900 
	C348.296875,547.872559 346.490814,549.338379 339.395447,549.343872 
	C298.737610,549.375305 258.079803,549.375977 217.421982,549.383606 
	C188.928177,549.388977 160.434311,549.359741 131.940643,549.425415 
	C128.180603,549.434082 125.016335,548.676025 123.022675,545.177673 
	C119.813904,539.547058 122.959206,532.823975 129.368927,531.841125 
	C131.164078,531.565796 133.026505,531.696167 134.858063,531.695923 
	C199.344040,531.688477 263.830048,531.661560 328.315918,531.747070 
	C332.437836,531.752502 335.091370,531.026428 337.395355,526.901062 
	C342.007812,518.642212 349.600922,514.085693 359.244751,514.416077 
	C368.852020,514.745178 375.365387,520.395081 379.407349,528.659668 
	C381.212585,532.350830 383.065582,534.053589 387.333801,533.470703 
	C391.427704,532.911621 395.636322,533.137207 399.794983,533.119080 
	C409.080231,533.078613 411.360199,534.764709 414.554108,544.757751 
	C415.306091,529.022583 416.017151,514.437561 416.696259,499.851013 
	C417.385284,485.051483 418.042694,470.250488 418.720642,454.964783 
z"/>
<path fill="#000000" opacity="1.000000" stroke="none" 
	d="
M372.039917,720.959656 
	C326.682159,675.560547 281.574707,630.411194 236.467819,585.261292 
	C235.054535,583.846680 233.580368,582.485962 232.249374,580.997498 
	C228.799744,577.139648 228.627411,571.672607 231.774429,568.305603 
	C235.112274,564.734314 240.695038,564.612305 244.790146,568.317078 
	C248.369843,571.555603 251.699890,575.071594 255.116013,578.489197 
	C328.622131,652.027649 402.124329,725.570007 475.632416,799.106506 
	C477.033905,800.508545 478.498016,801.847900 479.871979,803.158386 
	C482.503876,802.658081 483.597168,800.603333 485.066071,799.134766 
	C561.426514,722.785828 637.756897,646.406799 714.090393,570.030884 
	C714.325928,569.795105 714.558594,569.556458 714.794983,569.321533 
	C720.807922,563.342834 725.544861,562.578979 729.863586,566.891052 
	C733.927429,570.948608 733.079407,576.527222 727.523804,582.086365 
	C648.364868,661.295654 569.204651,740.503540 490.040558,819.707581 
	C482.156036,827.596252 478.630585,827.582031 470.901154,819.846191 
	C438.040070,786.958069 405.162140,754.086792 372.039917,720.959656 
z"/>
<path fill="#000000" opacity="1.000000" stroke="none" 
	d="
M46.136208,991.759521 
	C48.805401,994.099304 48.244373,996.395752 46.071373,998.425354 
	C45.061756,999.368225 43.735016,998.985840 43.198822,997.792236 
	C41.930344,994.968628 43.404133,993.148560 46.136208,991.759521 
z"/>
<path fill="#000000" opacity="1.000000" stroke="none" 
	d="
M68.820946,997.460083 
	C67.224327,999.349365 65.484268,999.642395 64.709686,997.593384 
	C63.525284,994.460571 65.558548,992.857544 68.253189,991.766785 
	C69.786064,993.585632 69.292931,995.362061 68.820946,997.460083 
z"/>
</svg>