<svg version="1.1" id="Layer_1" xmlns="http://www.w3.org/2000/svg" xmlns:xlink="http://www.w3.org/1999/xlink" x="0px" y="0px"
	 width="100%" viewBox="0 0 608 608" enable-background="new 0 0 608 608" xml:space="preserve">
<path fill="#000000" opacity="1.000000" stroke="none" 
	d="
M317.948273,445.110779 
	C299.561218,435.624786 281.442810,426.426971 263.470245,416.952545 
	C247.095154,408.320221 241.967331,389.340698 251.620438,373.864838 
	C256.094788,366.691559 262.665863,362.485138 270.871368,360.727112 
	C272.469116,360.384766 274.068604,360.050537 275.796112,359.685333 
	C275.150726,357.090149 273.169769,355.964783 271.697815,354.490173 
	C241.098434,323.835388 210.375519,293.303192 179.886917,262.538757 
	C163.155853,245.656326 170.713364,218.112946 193.646271,212.391083 
	C204.343582,209.722061 214.225998,212.313751 222.227997,220.167404 
	C234.708298,232.416412 246.971802,244.886047 259.403687,257.184845 
	C262.558441,260.305817 265.313873,263.925171 269.727417,266.380035 
	C272.819244,257.153564 277.953613,249.827621 286.893768,245.894073 
	C295.827454,241.963379 304.759766,243.174973 314.022217,246.577316 
	C321.763733,224.239502 336.931702,217.161621 359.282043,224.933807 
	C359.875488,223.308304 360.431580,221.777588 360.992950,220.248795 
	C368.549744,199.668289 394.341278,193.025085 410.066986,208.385117 
	C437.713226,235.388504 465.477173,262.340332 491.821045,290.591980 
	C530.799622,332.393280 528.670044,396.833557 488.495117,437.442902 
	C476.589050,449.477753 464.320160,460.828552 448.493011,467.604004 
	C416.649872,481.235596 385.331238,479.979156 354.560730,464.299011 
	C342.395447,458.099762 330.369720,451.626770 317.948273,445.110779 
M411.513550,227.986542 
	C407.682709,224.283600 404.113403,220.251846 399.963074,216.950638 
	C392.764343,211.224731 382.597321,212.112183 376.884583,218.489822 
	C370.619965,225.483612 370.748657,234.811722 377.397034,241.895676 
	C381.613007,246.387833 386.056854,250.666107 390.398224,255.040573 
	C396.147766,260.833954 401.993927,266.535858 407.603943,272.461334 
	C410.256775,275.263367 411.100220,278.593689 408.022186,281.800201 
	C405.323151,284.611908 401.743835,284.353271 398.307159,281.216064 
	C397.692444,280.654968 397.120361,280.046967 396.530853,279.458374 
	C383.562378,266.510254 370.602661,253.553345 357.622681,240.616760 
	C350.164001,233.183029 339.430115,232.651520 332.526459,239.334198 
	C325.298187,246.331131 325.605774,256.805695 333.380585,264.632782 
	C344.417908,275.744141 355.523895,286.787292 366.596710,297.863403 
	C370.750305,302.018311 371.556122,306.295441 368.734924,309.125366 
	C365.586121,312.283813 362.248657,311.678436 357.597076,307.092682 
	C355.817352,305.338165 354.050079,303.571014 352.282410,301.804382 
	C339.202057,288.731903 326.152924,275.627991 313.030792,262.597565 
	C306.575958,256.187836 298.829315,254.484451 292.120331,257.780853 
	C280.783691,263.351013 278.929443,276.575684 288.313507,286.118042 
	C300.810760,298.826141 313.481781,311.363159 326.005493,324.045441 
	C329.809052,327.897156 330.113953,331.221069 327.324158,334.084503 
	C324.315704,337.172333 320.866760,336.823242 316.948730,332.914978 
	C298.192261,314.205505 279.452820,295.479034 260.712860,276.753052 
	C245.274887,261.326691 229.937759,245.797836 214.372360,230.501221 
	C206.376495,222.643448 195.608063,222.228653 188.888641,229.097733 
	C183.048645,235.067825 181.340530,246.312485 190.417053,254.912750 
	C201.054947,264.992432 211.185562,275.607025 221.551086,285.974731 
	C250.057800,314.487457 278.560699,343.004059 307.100769,371.483368 
	C310.119629,374.495789 311.871552,377.755005 309.042786,381.591064 
	C306.274017,385.345734 302.768097,384.295593 299.234680,382.423096 
	C294.084290,379.693726 288.934967,376.926025 283.610229,374.570007 
	C273.903687,370.275085 263.034149,375.619965 260.282349,385.798920 
	C257.992279,394.269897 261.881439,401.619293 271.092804,406.389679 
	C301.114838,421.937531 331.130188,437.498322 361.139191,453.071320 
	C386.232452,466.093323 412.019836,467.247437 438.439331,457.633270 
	C459.474060,449.978607 474.584503,434.748291 488.130219,417.867279 
	C499.359680,403.872864 505.343231,387.411835 506.535797,369.573029 
	C508.474304,340.576263 499.266907,315.533234 478.505951,294.894745 
	C456.290436,272.810364 434.172913,250.627380 411.513550,227.986542 
z"/>
<path fill="#000000" opacity="1.000000" stroke="none" 
	d="
M250.658142,183.658386 
	C255.750778,178.588364 260.505432,173.676849 265.436554,168.949432 
	C269.354065,165.193741 272.984833,165.039856 275.957520,168.166809 
	C278.742737,171.096588 278.649750,174.657257 275.070282,178.371628 
	C267.786560,185.929871 260.365021,193.361038 252.827515,200.666306 
	C249.317276,204.068390 245.354706,204.076691 242.594284,201.239944 
	C239.874725,198.445206 240.082840,194.604004 243.356827,190.995239 
	C245.593765,188.529541 248.042343,186.255829 250.658142,183.658386 
z"/>
<path fill="#000000" opacity="1.000000" stroke="none" 
	d="
M139.358780,312.359619 
	C136.497833,315.182922 133.993942,317.879364 131.236008,320.284515 
	C128.258789,322.880859 124.927429,323.337646 121.773438,320.537598 
	C118.954681,318.035156 118.850471,313.883087 121.891899,310.724274 
	C129.516495,302.805481 137.266647,295.001404 145.158737,287.349640 
	C148.004257,284.590729 151.556229,284.536133 154.683502,287.106079 
	C157.656555,289.549377 157.756790,293.731354 154.774460,296.876465 
	C149.845840,302.074066 144.673553,307.040619 139.358780,312.359619 
z"/>
<path fill="#000000" opacity="1.000000" stroke="none" 
	d="
M206.271515,154.011124 
	C206.270203,161.165329 206.347641,167.823059 206.240250,174.477814 
	C206.159149,179.503067 203.392532,182.813538 199.545029,182.842743 
	C195.203247,182.875702 192.730225,179.883453 192.696609,174.272491 
	C192.636765,164.288162 192.630798,154.302887 192.696747,144.318634 
	C192.733871,138.698669 195.305038,135.584000 199.512878,135.754089 
	C203.838150,135.928909 206.177521,138.937531 206.264542,144.527267 
	C206.311157,147.521927 206.271530,150.517960 206.271515,154.011124 
z"/>
<path fill="#000000" opacity="1.000000" stroke="none" 
	d="
M122.942169,236.728088 
	C126.088013,236.806076 128.783646,236.625000 131.390533,237.023880 
	C135.132629,237.596436 137.404968,239.915802 137.236969,243.863968 
	C137.070236,247.782349 134.689255,250.142776 130.884842,250.206833 
	C119.584068,250.397064 108.276886,250.398209 96.975288,250.245529 
	C92.875031,250.190125 90.448051,247.607574 90.432571,243.538086 
	C90.415596,239.071671 93.346596,236.901947 97.518326,236.811066 
	C105.826317,236.630112 114.140617,236.738968 122.942169,236.728088 
z"/>
<path fill="#000000" opacity="1.000000" stroke="none" 
	d="
M133.483429,187.515961 
	C129.826065,183.879303 126.355034,180.548218 123.026527,177.080322 
	C120.123055,174.055267 119.584801,170.594223 122.343361,167.246643 
	C124.824417,164.235825 129.233551,164.349487 132.477737,167.532455 
	C140.057724,174.969437 147.556839,182.491272 154.973404,190.091263 
	C158.283127,193.482834 158.443878,197.517044 155.746521,200.262131 
	C152.819412,203.241089 148.812805,203.012787 145.227814,199.479080 
	C141.331573,195.638565 137.558487,191.673096 133.483429,187.515961 
z"/>
<path fill="#000000" opacity="1.000000" stroke="none" 
	d="
M205.027863,323.035278 
	C205.035828,330.004150 205.081253,336.479340 205.025070,342.953644 
	C205.010834,344.595520 204.895950,346.299835 204.438751,347.861755 
	C203.401581,351.404846 200.799164,352.902832 197.205795,352.504730 
	C193.407730,352.083893 191.707169,349.567535 191.680573,346.012115 
	C191.596100,334.723511 191.646973,323.433838 191.655594,312.144592 
	C191.658722,308.039795 194.044052,306.041809 197.836609,305.791687 
	C201.497833,305.550232 203.687332,307.463257 204.468735,311.128174 
	C205.276901,314.918671 204.883942,318.736145 205.027863,323.035278 
z"/>
</svg>