<svg version="1.1" id="Layer_1" xmlns="http://www.w3.org/2000/svg" xmlns:xlink="http://www.w3.org/1999/xlink" x="0px" y="0px"
	 width="100%" viewBox="0 0 592 336" enable-background="new 0 0 592 336" xml:space="preserve">
<path fill="#000000" opacity="1.000000" stroke="none" 
	d="
M188.867554,70.461838 
	C191.731522,99.801033 194.532196,128.689453 197.332855,157.577866 
	C197.684357,157.602753 198.035858,157.627655 198.387360,157.652542 
	C199.397385,155.053925 200.530975,152.495071 201.383957,149.845886 
	C202.303055,146.991440 203.928619,145.062485 207.066620,145.271439 
	C210.272995,145.484909 211.521683,147.886978 212.068115,150.676392 
	C213.186432,156.385056 214.370926,162.087540 215.235443,167.836594 
	C215.754181,171.286179 217.345734,172.681686 220.847336,172.671249 
	C248.177353,172.589783 275.507874,172.565247 302.837708,172.664581 
	C306.499573,172.677887 308.194885,170.679138 309.713867,167.914246 
	C313.161194,161.639435 316.727753,155.429947 320.154816,149.144272 
	C321.495392,146.685440 322.913330,144.527771 326.149384,144.740952 
	C329.437927,144.957596 330.412476,147.484314 331.443390,149.994614 
	C333.190735,154.249496 334.981293,158.486664 337.236359,163.887238 
	C338.740265,160.013504 339.872681,157.311539 340.838104,154.551163 
	C341.860565,151.627518 343.372864,149.296280 346.888306,149.860184 
	C349.963318,150.353455 351.128235,152.512909 351.416534,155.553970 
	C353.094635,173.255447 354.890778,190.945724 356.582001,207.985092 
	C358.037384,184.078232 359.979797,159.541443 360.918030,134.932236 
	C361.811798,111.488495 363.447205,88.072762 364.794403,64.646889 
	C364.995819,61.144520 365.693848,57.675655 370.208893,57.695656 
	C374.794220,57.715961 375.031891,61.168961 375.377319,64.710670 
	C377.765991,89.200371 380.264740,113.679382 382.754211,138.159164 
	C383.435059,144.854462 383.361115,151.656555 385.461456,159.197693 
	C386.909576,155.558472 387.996490,152.813141 389.094299,150.072159 
	C390.182770,147.354385 392.226990,146.320480 395.065857,146.725037 
	C397.869965,147.124634 398.825195,149.072708 399.263062,151.578476 
	C400.292969,157.472504 401.436127,163.346710 402.469116,169.240234 
	C403.010010,172.326309 404.458374,173.574982 407.865265,173.555862 
	C441.152039,173.369080 474.439880,173.375122 507.727417,173.321854 
	C512.383850,173.314407 517.041382,173.335541 521.696411,173.244156 
	C524.853088,173.182175 526.231750,174.700104 526.336914,177.761612 
	C526.438293,180.711990 526.047913,183.196259 522.322021,183.305847 
	C520.656738,183.354813 518.989807,183.364044 517.323669,183.364044 
	C479.661133,183.364044 441.998596,183.361633 404.336060,183.356171 
	C395.310425,183.354858 395.311829,183.348770 393.212738,174.499786 
	C393.021484,173.693573 392.797211,172.895172 392.319214,171.060196 
	C390.638397,175.609772 389.340057,179.386124 387.846619,183.083679 
	C386.652313,186.040573 385.336151,189.405899 381.294434,188.672577 
	C377.439789,187.973206 377.019562,184.640732 376.725403,181.305801 
	C375.381439,166.070358 373.929932,150.844360 372.486877,135.617828 
	C372.411896,134.826767 372.058563,134.062073 371.701263,132.821259 
	C369.456238,151.770523 369.463318,170.333221 368.310333,188.826172 
	C366.643066,215.567795 365.065704,242.315063 363.474091,269.061371 
	C363.305969,271.887207 363.399384,274.730042 363.190765,277.551605 
	C362.973755,280.486328 361.186890,282.130096 358.298492,282.192780 
	C355.638885,282.250519 353.873962,280.885254 353.556152,278.086395 
	C352.580627,269.495087 351.537415,260.910187 350.681580,252.306808 
	C348.299744,228.363403 345.999176,204.411926 343.637604,180.166824 
	C337.456055,185.177658 334.574188,184.361877 331.575104,177.193619 
	C329.595306,172.461502 327.637299,167.720245 325.091217,161.590805 
	C321.740784,167.527954 318.839691,172.268158 316.350403,177.215561 
	C314.579498,180.735214 312.264191,182.421219 308.172729,182.408707 
	C276.843567,182.312897 245.513779,182.337143 214.184525,182.437027 
	C209.534531,182.451859 206.858704,180.765991 206.643799,175.924057 
	C206.582916,174.552612 206.135010,173.333405 204.823624,172.042130 
	C202.222427,175.008575 201.692368,178.823380 200.358704,182.218262 
	C199.187439,185.199783 197.884384,187.907532 194.065887,187.336609 
	C190.206726,186.759598 190.079712,183.679810 189.610260,180.569473 
	C187.301208,165.270828 187.418839,149.714355 184.338715,134.194473 
	C182.746704,142.300644 183.056961,150.339554 182.566574,158.271271 
	C181.159744,181.025818 180.350311,203.816574 179.094543,226.581436 
	C178.178177,243.193451 176.460663,259.758484 176.136032,276.407898 
	C176.066498,279.973694 174.633072,282.900787 170.702682,282.834229 
	C166.615646,282.764984 165.977112,279.465424 165.650726,276.076660 
	C162.701492,245.455460 159.693817,214.839905 156.705139,184.222504 
	C156.608505,183.232681 156.629822,182.205795 155.729752,181.506622 
	C146.869186,182.848541 146.997375,182.795822 143.504272,174.302322 
	C141.624557,169.731766 140.471130,164.787964 137.266983,160.550217 
	C133.219513,162.112198 131.754791,165.926880 129.637466,168.899780 
	C126.930183,172.700974 123.665573,174.223572 119.080429,174.189575 
	C100.916824,174.054916 82.751686,174.129990 64.587120,174.117859 
	C63.590080,174.117188 62.569103,174.152832 61.600594,173.961929 
	C58.712482,173.392654 56.612762,171.990173 56.748837,168.652557 
	C56.884571,165.323318 59.035854,163.918365 62.002434,163.802841 
	C66.495461,163.627853 70.999237,163.716690 75.498459,163.715195 
	C88.663666,163.710815 101.830345,163.608109 114.993149,163.787155 
	C118.841576,163.839493 121.559097,162.882507 123.765594,159.491821 
	C126.755692,154.897003 130.204285,150.584610 133.647720,146.305161 
	C137.254471,141.822723 141.055466,142.482910 143.561035,147.607544 
	C145.656174,151.892731 146.603302,156.766647 150.032532,160.891251 
	C152.269196,158.512894 152.726562,155.690002 153.653549,153.148788 
	C154.676407,150.344788 156.263763,148.509064 159.477081,148.756332 
	C162.698151,149.004196 163.572174,151.527863 163.875900,154.006271 
	C164.806229,161.597504 165.665894,169.208252 166.181015,176.836533 
	C166.728104,184.938248 167.646057,192.961365 169.795181,200.897369 
	C170.751724,186.494247 171.742508,172.093307 172.656860,157.687531 
	C174.058533,135.603714 174.331665,113.459480 176.492889,91.410805 
	C177.352554,82.640656 177.403656,73.784523 177.633377,64.962608 
	C177.726639,61.381176 178.615417,58.401066 182.588531,58.172310 
	C186.736847,57.933464 187.601578,61.324009 188.170792,64.558510 
	C188.487350,66.357475 188.599808,68.192360 188.867554,70.461838 
z"/>
</svg>